<svg width="334" height="334" viewBox="0 0 334 334" fill="none" xmlns="http://www.w3.org/2000/svg">
<path d="M144.333 206.667V127.333L206.667 167L144.333 206.667Z" fill="#1D1B20"/>
<path d="M128.729 306.167L123.163 261.633C120.147 260.474 117.306 259.082 114.639 257.458C111.971 255.835 109.362 254.095 106.81 252.24L65.4083 269.635L27.1375 203.531L62.9729 176.394C62.741 174.77 62.625 173.204 62.625 171.697V162.303C62.625 160.795 62.741 159.23 62.9729 157.606L27.1375 130.469L65.4083 64.3645L106.81 81.7603C109.362 79.9048 112.029 78.1652 114.813 76.5416C117.596 74.918 120.379 73.5263 123.163 72.3666L128.729 27.8333H205.271L210.838 72.3666C213.853 73.5263 216.694 74.918 219.361 76.5416C222.029 78.1652 224.638 79.9048 227.19 81.7603L268.592 64.3645L306.863 130.469L271.027 157.606C271.259 159.23 271.375 160.795 271.375 162.303V171.697C271.375 173.204 271.143 174.77 270.679 176.394L306.515 203.531L268.244 269.635L227.19 252.24C224.638 254.095 221.971 255.835 219.188 257.458C216.404 259.082 213.621 260.474 210.838 261.633L205.271 306.167H128.729ZM167.696 215.708C181.149 215.708 192.63 210.953 202.14 201.444C211.649 191.934 216.404 180.453 216.404 167C216.404 153.547 211.649 142.066 202.14 132.556C192.63 123.046 181.149 118.292 167.696 118.292C154.011 118.292 142.472 123.046 133.078 132.556C123.684 142.066 118.988 153.547 118.988 167C118.988 180.453 123.684 191.934 133.078 201.444C142.472 210.953 154.011 215.708 167.696 215.708Z" fill="#1D1B20"/>
</svg>
