<svg width="1219" height="500" viewBox="0 0 1219 500" fill="none" xmlns="http://www.w3.org/2000/svg">
<path d="M219.338 52.4287C220.05 51.7311 220.406 51.3824 220.714 51.0918C237.165 35.6009 262.835 35.6009 279.286 51.0918C279.594 51.3824 279.95 51.7311 280.662 52.4287C281.089 52.8472 281.303 53.0565 281.506 53.2503C292.033 63.2967 306.95 67.2937 321.09 63.8567C321.362 63.7904 321.652 63.716 322.231 63.5671C323.197 63.3189 323.679 63.1949 324.092 63.0975C346.084 57.9076 368.315 70.7423 374.816 92.3834C374.938 92.7892 375.072 93.2693 375.34 94.2293C375.501 94.8054 375.581 95.0935 375.66 95.3628C379.753 109.327 390.673 120.247 404.637 124.34C404.907 124.419 405.195 124.499 405.771 124.66C406.731 124.928 407.211 125.062 407.617 125.184C429.258 131.685 442.092 153.916 436.902 175.908C436.805 176.321 436.681 176.803 436.433 177.769C436.284 178.348 436.21 178.637 436.143 178.91C432.706 193.05 436.703 207.967 446.75 218.494C446.943 218.697 447.153 218.911 447.571 219.338C448.269 220.05 448.618 220.406 448.908 220.714C464.399 237.165 464.399 262.835 448.908 279.286C448.618 279.594 448.269 279.95 447.571 280.662C447.153 281.089 446.943 281.303 446.75 281.506C436.703 292.033 432.706 306.95 436.143 321.09C436.21 321.362 436.284 321.652 436.433 322.231C436.681 323.197 436.805 323.679 436.902 324.092C442.092 346.084 429.258 368.315 407.617 374.816C407.211 374.938 406.731 375.072 405.771 375.34C405.195 375.501 404.906 375.581 404.637 375.66C390.673 379.753 379.753 390.673 375.66 404.637C375.581 404.906 375.501 405.195 375.34 405.771C375.072 406.731 374.938 407.211 374.816 407.617C368.315 429.258 346.084 442.092 324.092 436.902C323.679 436.805 323.197 436.681 322.231 436.433C321.652 436.284 321.362 436.21 321.09 436.143C306.95 432.706 292.033 436.703 281.506 446.75C281.303 446.943 281.089 447.153 280.662 447.571C279.95 448.269 279.594 448.618 279.286 448.908C262.835 464.399 237.165 464.399 220.714 448.908C220.406 448.618 220.05 448.269 219.338 447.571C218.911 447.153 218.697 446.943 218.494 446.75C207.967 436.703 193.05 432.706 178.91 436.143C178.638 436.21 178.348 436.284 177.769 436.433C176.803 436.681 176.321 436.805 175.908 436.902C153.916 442.092 131.685 429.258 125.184 407.617C125.062 407.211 124.928 406.731 124.66 405.771C124.499 405.195 124.419 404.906 124.34 404.637C120.247 390.673 109.327 379.753 95.3629 375.66C95.0935 375.581 94.8055 375.501 94.2294 375.34C93.2693 375.072 92.7893 374.938 92.3834 374.816C70.7423 368.315 57.9076 346.084 63.0976 324.092C63.1949 323.679 63.319 323.197 63.5671 322.231C63.716 321.652 63.7905 321.362 63.8568 321.09C67.2938 306.95 63.2968 292.033 53.2504 281.506C53.0566 281.303 52.8473 281.089 52.4287 280.662C51.7312 279.95 51.3824 279.594 51.0919 279.286C35.601 262.835 35.601 237.165 51.0919 220.714C51.3824 220.406 51.7312 220.05 52.4287 219.338C52.8473 218.911 53.0566 218.697 53.2504 218.494C63.2968 207.967 67.2938 193.05 63.8568 178.91C63.7905 178.638 63.716 178.348 63.5671 177.769C63.319 176.803 63.1949 176.321 63.0976 175.908C57.9076 153.916 70.7423 131.685 92.3834 125.184C92.7893 125.062 93.2693 124.928 94.2294 124.66C94.8055 124.499 95.0935 124.419 95.3629 124.34C109.327 120.247 120.247 109.327 124.34 95.3628C124.419 95.0935 124.499 94.8054 124.66 94.2293C124.928 93.2693 125.062 92.7892 125.184 92.3834C131.685 70.7423 153.916 57.9076 175.908 63.0975C176.321 63.1949 176.803 63.3189 177.769 63.5671C178.348 63.716 178.638 63.7904 178.91 63.8567C193.05 67.2937 207.967 63.2967 218.494 53.2503C218.697 53.0565 218.911 52.8472 219.338 52.4287Z" fill="#BAC3FF"/>
<path d="M227.333 289.667V210.333L289.667 250L227.333 289.667Z" fill="#1D1B20"/>
<path d="M211.729 389.167L206.163 344.633C203.147 343.474 200.306 342.082 197.639 340.458C194.971 338.835 192.362 337.095 189.81 335.24L148.408 352.635L110.138 286.531L145.973 259.394C145.741 257.77 145.625 256.204 145.625 254.697V245.303C145.625 243.795 145.741 242.23 145.973 240.606L110.138 213.469L148.408 147.365L189.81 164.76C192.362 162.905 195.029 161.165 197.813 159.542C200.596 157.918 203.379 156.526 206.163 155.367L211.729 110.833H288.271L293.838 155.367C296.853 156.526 299.694 157.918 302.361 159.542C305.029 161.165 307.638 162.905 310.19 164.76L351.592 147.365L389.863 213.469L354.027 240.606C354.259 242.23 354.375 243.795 354.375 245.303V254.697C354.375 256.204 354.143 257.77 353.679 259.394L389.515 286.531L351.244 352.635L310.19 335.24C307.638 337.095 304.971 338.835 302.188 340.458C299.404 342.082 296.621 343.474 293.838 344.633L288.271 389.167H211.729ZM250.696 298.708C264.149 298.708 275.63 293.953 285.14 284.444C294.649 274.934 299.404 263.453 299.404 250C299.404 236.547 294.649 225.066 285.14 215.556C275.63 206.046 264.149 201.292 250.696 201.292C237.011 201.292 225.472 206.046 216.078 215.556C206.684 225.066 201.988 236.547 201.988 250C201.988 263.453 206.684 274.934 216.078 284.444C225.472 293.953 237.011 298.708 250.696 298.708Z" fill="#1D1B20"/>
<path d="M499.312 200H513.812L534 269.312C534.375 270.521 534.75 271.812 535.125 273.188C535.542 274.521 535.875 275.729 536.125 276.812H536.5C536.75 275.729 537.083 274.458 537.5 273C537.958 271.542 538.333 270.312 538.625 269.312L558.25 200H572L544.938 291.5H526.875L499.312 200ZM579 291V233.75H593.062V291H579ZM578.125 211.875C578.125 209.75 578.812 207.979 580.188 206.562C581.604 205.104 583.583 204.375 586.125 204.375C588.667 204.375 590.604 205.083 591.938 206.5C593.271 207.917 593.938 209.708 593.938 211.875C593.938 213.958 593.25 215.75 591.875 217.25C590.5 218.708 588.542 219.438 586 219.438C583.458 219.438 581.5 218.708 580.125 217.25C578.792 215.75 578.125 213.958 578.125 211.875ZM604.188 263.312V261.312C604.188 252.979 606.333 246.104 610.625 240.688C614.958 235.229 620.75 232.5 628 232.5C632.708 232.5 636.604 233.271 639.688 234.812C642.812 236.312 645.354 238.417 647.312 241.125V199.938H660.75V291H647.375L647.438 282.312L647.312 282.75C645.146 285.25 642.479 287.458 639.312 289.375C636.146 291.292 632.229 292.25 627.562 292.25C620.104 292.25 614.333 289.521 610.25 284.062C606.208 278.562 604.188 271.646 604.188 263.312ZM618.125 263.125C618.125 269 619.167 273.833 621.25 277.625C623.333 281.417 626.938 283.312 632.062 283.312C635.479 283.312 638.562 282.417 641.312 280.625C644.062 278.833 645.958 276.771 647 274.438V250.188C646 247.562 644.188 245.458 641.562 243.875C638.979 242.292 636 241.5 632.625 241.5C627.5 241.5 623.792 243.396 621.5 247.188C619.25 250.938 618.125 255.729 618.125 261.562V263.125ZM671.625 263.188V261.188C671.625 252.396 674.146 245.375 679.188 240.125C684.271 234.833 691.167 232.188 699.875 232.188C708.667 232.188 715.354 234.688 719.938 239.688C724.521 244.688 726.729 251.625 726.562 260.5V264H678.375L678.25 257.375H713.188C713.188 252.917 712.208 249.104 710.25 245.938C708.333 242.771 704.708 241.188 699.375 241.188C694.75 241.188 691.229 242.958 688.812 246.5C686.396 250 685.188 254.396 685.188 259.688V263.312C685.188 269.521 686.479 274.417 689.062 278C691.646 281.542 695.479 283.312 700.562 283.312C703.854 283.312 706.771 282.562 709.312 281.062C711.854 279.521 713.771 277.583 715.062 275.25L726.812 278.188C725.146 282.438 722.188 285.875 717.938 288.5C713.729 291.083 708 292.375 700.75 292.375C691.375 292.375 684.167 289.771 679.125 284.562C674.125 279.312 671.625 272.188 671.625 263.188ZM733.438 263.25V261.25C733.438 252.542 736.125 245.521 741.5 240.188C746.917 234.812 754.104 232.125 763.062 232.125C772.021 232.125 779.188 234.812 784.562 240.188C789.938 245.521 792.625 252.542 792.625 261.25V263.25C792.625 272.042 789.938 279.104 784.562 284.438C779.188 289.729 772.021 292.375 763.062 292.375C754.062 292.375 746.875 289.729 741.5 284.438C736.125 279.104 733.438 272.042 733.438 263.25ZM747.375 260.812V263.625C747.375 270.25 748.708 275.167 751.375 278.375C754.042 281.583 757.917 283.188 763 283.188C768.125 283.188 772.021 281.583 774.688 278.375C777.396 275.167 778.75 270.25 778.75 263.625V260.812C778.75 254.521 777.396 249.729 774.688 246.438C772.021 243.146 768.125 241.5 763 241.5C757.917 241.5 754.042 243.146 751.375 246.438C748.708 249.729 747.375 254.521 747.375 260.812ZM829.688 257.438V200H843.875V259.562C843.875 267.938 845.375 273.958 848.375 277.625C851.375 281.292 855.562 283.125 860.938 283.125C866.146 283.125 870.25 281.292 873.25 277.625C876.292 273.958 877.812 267.938 877.812 259.562V200H892V257.438C892 269.271 889.333 278.042 884 283.75C878.667 289.417 871.021 292.25 861.062 292.25C851.021 292.25 843.271 289.417 837.812 283.75C832.396 278.042 829.688 269.271 829.688 257.438ZM899.312 243.562V233.75H936.688V243.562H899.312ZM909.312 273.75V234.938L909.688 234.812V213.5H922.812V270.062C922.812 275.438 923.438 278.979 924.688 280.688C925.938 282.354 927.917 283.188 930.625 283.188C931.667 283.188 932.646 283.125 933.562 283C934.521 282.833 935.438 282.562 936.312 282.188V291.125C935.312 291.375 933.896 291.625 932.062 291.875C930.229 292.125 927.917 292.25 925.125 292.25C920 292.25 916.083 290.854 913.375 288.062C910.667 285.229 909.312 280.458 909.312 273.75ZM946.375 291V233.75H960.438V291H946.375ZM945.5 211.875C945.5 209.75 946.188 207.979 947.562 206.562C948.979 205.104 950.958 204.375 953.5 204.375C956.042 204.375 957.979 205.083 959.312 206.5C960.646 207.917 961.312 209.708 961.312 211.875C961.312 213.958 960.625 215.75 959.25 217.25C957.875 218.708 955.917 219.438 953.375 219.438C950.833 219.438 948.875 218.708 947.5 217.25C946.167 215.75 945.5 213.958 945.5 211.875ZM975.25 291V199.938H989.188V291H975.25ZM1004 291V233.75H1018.06V291H1004ZM1003.12 211.875C1003.12 209.75 1003.81 207.979 1005.19 206.562C1006.6 205.104 1008.58 204.375 1011.12 204.375C1013.67 204.375 1015.6 205.083 1016.94 206.5C1018.27 207.917 1018.94 209.708 1018.94 211.875C1018.94 213.958 1018.25 215.75 1016.88 217.25C1015.5 218.708 1013.54 219.438 1011 219.438C1008.46 219.438 1006.5 218.708 1005.12 217.25C1003.79 215.75 1003.12 213.958 1003.12 211.875ZM1026.94 243.562V233.75H1064.31V243.562H1026.94ZM1036.94 273.75V234.938L1037.31 234.812V213.5H1050.44V270.062C1050.44 275.438 1051.06 278.979 1052.31 280.688C1053.56 282.354 1055.54 283.188 1058.25 283.188C1059.29 283.188 1060.27 283.125 1061.19 283C1062.15 282.833 1063.06 282.562 1063.94 282.188V291.125C1062.94 291.375 1061.52 291.625 1059.69 291.875C1057.85 292.125 1055.54 292.25 1052.75 292.25C1047.62 292.25 1043.71 290.854 1041 288.062C1038.29 285.229 1036.94 280.458 1036.94 273.75ZM1074 291V233.75H1088.06V291H1074ZM1073.12 211.875C1073.12 209.75 1073.81 207.979 1075.19 206.562C1076.6 205.104 1078.58 204.375 1081.12 204.375C1083.67 204.375 1085.6 205.083 1086.94 206.5C1088.27 207.917 1088.94 209.708 1088.94 211.875C1088.94 213.958 1088.25 215.75 1086.88 217.25C1085.5 218.708 1083.54 219.438 1081 219.438C1078.46 219.438 1076.5 218.708 1075.12 217.25C1073.79 215.75 1073.12 213.958 1073.12 211.875ZM1099.5 263.188V261.188C1099.5 252.396 1102.02 245.375 1107.06 240.125C1112.15 234.833 1119.04 232.188 1127.75 232.188C1136.54 232.188 1143.23 234.688 1147.81 239.688C1152.4 244.688 1154.6 251.625 1154.44 260.5V264H1106.25L1106.12 257.375H1141.06C1141.06 252.917 1140.08 249.104 1138.12 245.938C1136.21 242.771 1132.58 241.188 1127.25 241.188C1122.62 241.188 1119.1 242.958 1116.69 246.5C1114.27 250 1113.06 254.396 1113.06 259.688V263.312C1113.06 269.521 1114.35 274.417 1116.94 278C1119.52 281.542 1123.35 283.312 1128.44 283.312C1131.73 283.312 1134.65 282.562 1137.19 281.062C1139.73 279.521 1141.65 277.583 1142.94 275.25L1154.69 278.188C1153.02 282.438 1150.06 285.875 1145.81 288.5C1141.6 291.083 1135.88 292.375 1128.62 292.375C1119.25 292.375 1112.04 289.771 1107 284.562C1102 279.312 1099.5 272.188 1099.5 263.188ZM1162.19 272.625L1174.19 272.812V274.125C1174.19 278.25 1175.38 281.167 1177.75 282.875C1180.17 284.542 1183.4 285.375 1187.44 285.375C1191.44 285.375 1194.44 284.646 1196.44 283.188C1198.48 281.688 1199.5 279.438 1199.5 276.438C1199.5 273.562 1198.35 271.417 1196.06 270C1193.77 268.542 1189.9 267.25 1184.44 266.125C1177.06 264.625 1171.88 262.521 1168.88 259.812C1165.88 257.104 1164.38 253.417 1164.38 248.75C1164.38 243.375 1166.48 239.271 1170.69 236.438C1174.9 233.562 1180.77 232.125 1188.31 232.125C1195.73 232.125 1201.58 233.708 1205.88 236.875C1210.17 240 1212.29 244.292 1212.25 249.75V251.188H1200.31V250C1200.31 246.417 1199.21 243.771 1197 242.062C1194.79 240.354 1191.77 239.5 1187.94 239.5C1184.44 239.5 1181.77 240.208 1179.94 241.625C1178.15 243 1177.25 245.021 1177.25 247.688C1177.25 250.104 1178.23 252.021 1180.19 253.438C1182.19 254.812 1185.9 256.062 1191.31 257.188C1198.94 258.688 1204.52 260.75 1208.06 263.375C1211.6 265.958 1213.38 269.542 1213.38 274.125C1213.38 280.083 1211.21 284.625 1206.88 287.75C1202.58 290.833 1196.25 292.375 1187.88 292.375C1179.67 292.375 1173.38 290.792 1169 287.625C1164.62 284.458 1162.38 279.875 1162.25 273.875L1162.19 272.625Z" fill="#BAC3FF"/>
</svg>
