<svg xmlns="http://www.w3.org/2000/svg" version="1.1" xmlns:xlink="http://www.w3.org/1999/xlink" width="500" height="500"><svg xmlns="http://www.w3.org/2000/svg" version="1.1" xmlns:xlink="http://www.w3.org/1999/xlink" width="500" height="500"><svg width="500" height="500" viewBox="0 0 500 500" fill="none" xmlns="http://www.w3.org/2000/svg">
<path d="M219.338 52.4287C220.05 51.7311 220.406 51.3824 220.714 51.0918C237.165 35.6009 262.835 35.6009 279.286 51.0918C279.594 51.3824 279.95 51.7311 280.662 52.4287C281.089 52.8472 281.303 53.0565 281.506 53.2503C292.033 63.2967 306.95 67.2937 321.09 63.8567C321.362 63.7904 321.652 63.716 322.231 63.5671C323.197 63.3189 323.679 63.1949 324.092 63.0975C346.084 57.9076 368.315 70.7423 374.816 92.3834C374.938 92.7892 375.072 93.2693 375.34 94.2293C375.501 94.8054 375.581 95.0935 375.66 95.3628C379.753 109.327 390.673 120.247 404.637 124.34C404.907 124.419 405.195 124.499 405.771 124.66C406.731 124.928 407.211 125.062 407.617 125.184C429.258 131.685 442.092 153.916 436.902 175.908C436.805 176.321 436.681 176.803 436.433 177.769C436.284 178.348 436.21 178.637 436.143 178.91C432.706 193.05 436.703 207.967 446.75 218.494C446.943 218.697 447.153 218.911 447.571 219.338C448.269 220.05 448.618 220.406 448.908 220.714C464.399 237.165 464.399 262.835 448.908 279.286C448.618 279.594 448.269 279.95 447.571 280.662C447.153 281.089 446.943 281.303 446.75 281.506C436.703 292.033 432.706 306.95 436.143 321.09C436.21 321.362 436.284 321.652 436.433 322.231C436.681 323.197 436.805 323.679 436.902 324.092C442.092 346.084 429.258 368.315 407.617 374.816C407.211 374.938 406.731 375.072 405.771 375.34C405.195 375.501 404.906 375.581 404.637 375.66C390.673 379.753 379.753 390.673 375.66 404.637C375.581 404.906 375.501 405.195 375.34 405.771C375.072 406.731 374.938 407.211 374.816 407.617C368.315 429.258 346.084 442.092 324.092 436.902C323.679 436.805 323.197 436.681 322.231 436.433C321.652 436.284 321.362 436.21 321.09 436.143C306.95 432.706 292.033 436.703 281.506 446.75C281.303 446.943 281.089 447.153 280.662 447.571C279.95 448.269 279.594 448.618 279.286 448.908C262.835 464.399 237.165 464.399 220.714 448.908C220.406 448.618 220.05 448.269 219.338 447.571C218.911 447.153 218.697 446.943 218.494 446.75C207.967 436.703 193.05 432.706 178.91 436.143C178.638 436.21 178.348 436.284 177.769 436.433C176.803 436.681 176.321 436.805 175.908 436.902C153.916 442.092 131.685 429.258 125.184 407.617C125.062 407.211 124.928 406.731 124.66 405.771C124.499 405.195 124.419 404.906 124.34 404.637C120.247 390.673 109.327 379.753 95.3629 375.66C95.0935 375.581 94.8055 375.501 94.2294 375.34C93.2693 375.072 92.7893 374.938 92.3834 374.816C70.7423 368.315 57.9076 346.084 63.0976 324.092C63.1949 323.679 63.319 323.197 63.5671 322.231C63.716 321.652 63.7905 321.362 63.8568 321.09C67.2938 306.95 63.2968 292.033 53.2504 281.506C53.0566 281.303 52.8473 281.089 52.4287 280.662C51.7312 279.95 51.3824 279.594 51.0919 279.286C35.601 262.835 35.601 237.165 51.0919 220.714C51.3824 220.406 51.7312 220.05 52.4287 219.338C52.8473 218.911 53.0566 218.697 53.2504 218.494C63.2968 207.967 67.2938 193.05 63.8568 178.91C63.7905 178.638 63.716 178.348 63.5671 177.769C63.319 176.803 63.1949 176.321 63.0976 175.908C57.9076 153.916 70.7423 131.685 92.3834 125.184C92.7893 125.062 93.2693 124.928 94.2294 124.66C94.8055 124.499 95.0935 124.419 95.3629 124.34C109.327 120.247 120.247 109.327 124.34 95.3628C124.419 95.0935 124.499 94.8054 124.66 94.2293C124.928 93.2693 125.062 92.7892 125.184 92.3834C131.685 70.7423 153.916 57.9076 175.908 63.0975C176.321 63.1949 176.803 63.3189 177.769 63.5671C178.348 63.716 178.638 63.7904 178.91 63.8567C193.05 67.2937 207.967 63.2967 218.494 53.2503C218.697 53.0565 218.911 52.8472 219.338 52.4287Z" fill="#BAC3FF"></path>
<path d="M227.333 289.667V210.333L289.667 250L227.333 289.667Z" fill="#1D1B20"></path>
<path d="M211.729 389.167L206.163 344.633C203.147 343.474 200.306 342.082 197.639 340.458C194.971 338.835 192.362 337.095 189.81 335.24L148.408 352.635L110.138 286.531L145.973 259.394C145.741 257.77 145.625 256.204 145.625 254.697V245.303C145.625 243.795 145.741 242.23 145.973 240.606L110.138 213.469L148.408 147.365L189.81 164.76C192.362 162.905 195.029 161.165 197.813 159.542C200.596 157.918 203.379 156.526 206.163 155.367L211.729 110.833H288.271L293.838 155.367C296.853 156.526 299.694 157.918 302.361 159.542C305.029 161.165 307.638 162.905 310.19 164.76L351.592 147.365L389.863 213.469L354.027 240.606C354.259 242.23 354.375 243.795 354.375 245.303V254.697C354.375 256.204 354.143 257.77 353.679 259.394L389.515 286.531L351.244 352.635L310.19 335.24C307.638 337.095 304.971 338.835 302.188 340.458C299.404 342.082 296.621 343.474 293.838 344.633L288.271 389.167H211.729ZM250.696 298.708C264.149 298.708 275.63 293.953 285.14 284.444C294.649 274.934 299.404 263.453 299.404 250C299.404 236.547 294.649 225.066 285.14 215.556C275.63 206.046 264.149 201.292 250.696 201.292C237.011 201.292 225.472 206.046 216.078 215.556C206.684 225.066 201.988 236.547 201.988 250C201.988 263.453 206.684 274.934 216.078 284.444C225.472 293.953 237.011 298.708 250.696 298.708Z" fill="#1D1B20"></path>
</svg></svg><style>@media (prefers-color-scheme: light) { :root { filter: none; } }
@media (prefers-color-scheme: dark) { :root { filter: none; } }
</style></svg>